# xmcd CD database file
#
# Track frame offsets:
#	150
#	12354
#	28388
#	44277
#	62749
#	78315
#	93903
#	104892
#	118955
#	129489
#	148141
#	166442
#	179777
#	192010
#	204619
#	221700
#	243240
#	264326
#	280631
#	296022
#
# Disc length: 4112 seconds
#
# Revision: 2
# Processed by: cddbd v1.5.2PL0 Copyright (c) Steve Scherf et al.
# Submitted via: CDex 1.70beta2
#
DISCID=39100e14
DTITLE=Jacques Brel - Les 100 plus belles chansons - CD3
DYEAR=2006
DGENRE=Chanson
TTITLE0=Rosa
TTITLE1=Pourquoi faut-il que les hommes s'ennuient ?
TTITLE2=Les bonbons
TTITLE3=Les vieux
TTITLE4=La parlote
TTITLE5=Le dernier repas
TTITLE6=Titine
TTITLE7=Au suivant
TTITLE8=Les toros
TTITLE9=La fanette
TTITLE10=J'aimais
TTITLE11=Les filles et les chiens
TTITLE12=Les bigotes
TTITLE13=Les fenêtres
TTITLE14=Quand maman reviendra
TTITLE15=Les amants de coeur (the lovers)
TTITLE16=Ces gens-là
TTITLE17=JEF
TTITLE18=La chanson de Jacky
TTITLE19=Les bergers
EXTD=YEAR: 2006
EXTT0=
EXTT1=
EXTT2=
EXTT3=
EXTT4=
EXTT5=
EXTT6=
EXTT7=
EXTT8=
EXTT9=
EXTT10=
EXTT11=
EXTT12=
EXTT13=
EXTT14=
EXTT15=
EXTT16=
EXTT17=
EXTT18=
EXTT19=
PLAYORDER=
